{"glyphs":{":":{"x_min":0,"x_max":121,"ha":121,"o":"m -35 32 b -35 11 -21 0 1 0 b 23 0 46 32 46 57 b 46 72 33 87 12 87 b -10 87 -35 48 -35 32 z m 6 218 b 6 197 20 186 42 186 b 64 186 87 218 87 243 b 87 258 74 273 53 273 b 31 273 6 234 6 218 z"},"$":{"x_min":0,"x_max":356,"ha":356,"o":"m 337 617 b 358 661 366 670 390 715 b 400 735 380 744 354 738 b 327 732 313 722 313 722 b 311 718 307 700 282 621 b 199 601 44 463 44 345 b 44 274 113 228 146 175 b 132 128 117 82 104 41 b 80 24 53 13 31 13 b -19 13 6 98 -12 98 b -30 98 -34 78 -34 66 b -34 54 -32 -28 61 -28 b 69 -28 77 -28 84 -27 b 65 -88 54 -128 53 -130 b 48 -140 77 -164 83 -138 b 85 -130 94 -87 111 -21 b 176 2 218 61 218 99 b 218 130 195 160 173 190 b 205 293 248 412 302 538 b 327 553 350 561 371 561 b 384 561 389 555 389 544 b 389 488 267 325 257 315 b 245 304 258 293 262 293 b 299 293 433 463 433 525 b 433 555 391 600 337 617 z m 164 123 b 164 102 152 82 135 64 b 141 90 150 119 159 148 b 162 140 164 131 164 123 z m 157 211 b 139 239 124 267 124 298 b 124 346 179 430 242 490 b 216 402 185 304 157 211 z"},"?":{"x_min":0,"x_max":380,"ha":380,"o":"m 58 -11 b 58 -38 83 -46 111 -46 b 138 -46 163 10 163 28 b 163 46 128 59 109 59 b 90 59 58 9 58 -11 z m 5 389 b 5 323 96 306 96 320 b 96 335 80 320 80 350 b 80 416 291 569 357 569 b 375 569 390 563 390 532 b 390 419 57 256 57 165 b 57 125 103 92 120 92 b 126 92 141 92 141 105 b 141 114 121 107 121 132 b 121 200 443 347 443 480 b 443 543 363 632 319 632 b 181 632 5 455 5 389 z"},"<":{"x_min":0,"x_max":303,"ha":303,"o":"m 252 383 b 200 330 0 246 -2 224 b -4 201 11 151 21 140 b 30 129 196 123 245 71 b 254 57 272 86 249 107 b 205 141 49 180 49 180 b 49 180 287 303 289 316 b 290 329 278 404 252 383 z"},"'":{"x_min":0,"x_max":146,"ha":146,"o":"m 130 611 b 101 583 71 504 71 491 b 71 469 114 451 114 464 b 114 504 181 563 181 580 b 181 592 144 625 130 611 z"},"=":{"x_min":0,"x_max":419,"ha":419,"o":"m 390 376 b 157 376 59 340 59 323 b 59 314 72 308 86 308 b 100 308 123 320 264 320 b 439 320 400 298 432 298 b 459 298 437 376 390 376 z m 300 251 b 126 251 16 232 16 218 b 16 209 26 205 42 205 b 330 205 323 143 357 143 b 401 143 340 251 300 251 z"},"a":{"x_min":0,"x_max":352,"ha":352,"o":"m 352 180 b 301 114 258 54 223 54 b 219 54 217 57 217 62 b 217 87 271 171 271 188 b 271 210 236 234 212 234 b 208 234 204 229 198 221 b 186 205 50 37 34 37 b 28 37 26 42 26 47 b 26 102 158 261 181 261 b 197 261 195 250 206 250 b 213 250 216 255 216 261 b 216 274 178 315 148 315 b 82 315 -71 101 -71 40 b -71 9 -45 -34 -18 -34 b 26 -34 118 85 167 155 b 157 125 149 95 149 75 b 149 49 189 23 204 23 b 268 23 319 96 373 167 z"},"L":{"x_min":0,"x_max":378,"ha":378,"o":"m 514 -95 b 492 -73 406 -70 375 -70 b 288 -70 189 -86 99 -108 b 192 77 440 437 440 551 b 440 601 356 675 295 675 b 134 675 -83 452 -83 322 b -83 262 21 223 21 242 b 21 262 -4 250 -4 296 b -4 394 214 619 346 619 b 363 619 374 609 374 587 b 374 474 17 -20 -3 -135 b -119 -170 -205 -209 -205 -220 b -205 -224 -202 -225 -199 -225 b -185 -225 -105 -197 2 -170 b 18 -206 59 -238 59 -221 b 59 -204 66 -181 77 -153 b 151 -138 232 -127 312 -127 b 532 -127 527 -210 545 -210 b 550 -210 552 -202 552 -191 b 552 -161 535 -116 514 -95 z"},"3":{"x_min":0,"x_max":456,"ha":456,"o":"m 277 311 b 362 362 477 450 477 514 b 477 562 443 614 386 614 b 233 614 64 488 64 440 b 64 402 89 364 116 364 b 143 364 127 383 127 399 b 127 449 319 578 411 578 b 420 578 423 573 423 563 b 423 484 138 327 126 317 b 114 307 143 249 155 249 b 156 249 165 252 178 258 b 197 264 229 271 276 271 b 318 271 355 263 355 238 b 355 194 140 34 -1 34 b -55 34 -24 48 -41 48 b -77 48 -62 -40 -7 -40 b 144 -40 402 98 402 202 b 402 277 348 307 277 311 z"},";":{"x_min":0,"x_max":174,"ha":174,"o":"m -14 50 b -14 -18 -85 -56 -85 -72 b -85 -78 -81 -83 -73 -83 b -48 -83 71 22 71 62 b 71 82 48 100 24 100 b -15 100 -28 87 -28 79 b -28 71 -14 71 -14 50 z m 6 218 b 6 197 20 186 42 186 b 64 186 87 218 87 243 b 87 258 74 273 53 273 b 31 273 6 234 6 218 z"},"J":{"x_min":0,"x_max":457,"ha":457,"o":"m 464 299 b 489 367 504 432 504 489 b 504 571 438 645 385 645 b 227 645 26 403 26 268 b 26 173 163 161 163 191 b 163 202 104 174 104 250 b 104 376 297 603 412 603 b 420 603 435 590 435 523 b 435 450 384 326 326 217 b 136 91 -86 -89 -86 -181 b -86 -200 -42 -249 -5 -249 b 98 -249 346 14 449 259 z m -19 -179 b -21 -179 -23 -176 -23 -171 b -23 -97 140 42 292 156 b 190 -19 30 -179 -19 -179 z"},"V":{"x_min":0,"x_max":345,"ha":345,"o":"m 670 724 b 500 724 236 265 156 92 b 185 197 210 312 210 375 b 210 449 179 489 136 489 b 80 489 68 433 86 433 b 105 433 95 454 105 454 b 114 454 132 457 132 406 b 132 246 0 -31 0 -55 b 0 -55 0 -55 0 -56 b 2 -109 112 -134 112 -112 b 112 -38 463 632 685 632 b 746 632 741 622 756 622 b 782 622 744 724 670 724 z"},"\"":{"x_min":0,"x_max":188,"ha":188,"o":"m 130 611 b 101 583 71 504 71 491 b 71 469 114 451 114 464 b 114 504 181 563 181 580 b 181 592 144 625 130 611 z m 235 604 b 206 576 168 506 168 488 b 168 466 210 444 210 462 b 210 472 265 551 285 575 b 296 588 249 618 235 604 z"},"7":{"x_min":0,"x_max":463,"ha":463,"o":"m 381 352 b 370 352 356 351 340 350 b 422 444 492 521 492 530 b 492 564 436 607 412 607 b 388 607 166 538 95 538 b 63 538 59 551 46 551 b 46 551 37 552 37 532 b 37 512 91 460 122 460 b 152 460 355 559 417 577 b 417 577 301 453 192 326 b 101 306 16 279 16 255 b 16 255 16 246 26 246 b 32 246 69 264 151 278 b 69 180 0 89 0 59 b 0 -2 59 -43 72 -43 b 86 -43 75 -27 75 -15 b 75 33 183 168 290 292 b 313 293 338 294 365 294 b 421 294 425 275 440 275 b 464 275 409 352 381 352 z"},"S":{"x_min":0,"x_max":356,"ha":356,"o":"m 226 226 b 335 226 521 496 521 581 b 521 648 419 688 362 688 b 283 688 24 443 24 298 b 24 204 153 172 153 49 b 153 -14 78 -68 31 -68 b -16 -68 -40 -45 -40 -22 b -40 0 -66 -11 -66 -31 b -66 -50 -34 -118 64 -118 b 162 -118 214 -34 214 16 b 214 115 87 205 87 252 b 87 331 304 633 447 633 b 461 633 466 626 466 613 b 466 495 208 264 183 264 b 159 264 187 226 226 226 z"},"}":{"x_min":0,"x_max":274,"ha":274,"o":"m 232 564 b 232 555 241 555 241 536 b 241 481 142 347 142 292 b 142 236 166 226 166 226 b 87 226 65 -79 -43 -79 b -56 -79 -51 -74 -62 -74 b -76 -74 -65 -123 -3 -123 b 98 -123 126 203 203 203 b 210 203 219 201 219 213 b 219 222 209 223 209 267 b 209 328 309 465 309 515 b 309 555 232 584 232 564 z"},"Z":{"x_min":0,"x_max":500,"ha":500,"o":"m 573 595 b 526 595 317 545 224 545 b 166 545 194 577 167 577 b 133 577 174 433 232 433 b 280 433 392 484 529 500 b 431 421 327 333 232 250 b 154 236 77 224 45 224 b 30 224 40 177 57 177 b 62 177 104 180 158 186 b 27 71 -76 -23 -100 -45 b -103 -47 -105 -49 -106 -51 b -119 -68 -88 -145 -66 -145 b -57 -145 67 -56 381 -56 b 502 -56 486 -87 494 -87 b 523 -87 501 47 414 47 b 302 47 129 21 13 -7 b 63 48 140 119 227 193 b 341 206 471 222 471 232 b 471 262 452 288 440 288 b 434 288 380 277 312 265 b 418 353 529 441 614 507 b 636 521 605 595 573 595 z"},"x":{"x_min":0,"x_max":298,"ha":298,"o":"m 289 294 b 289 334 235 381 208 381 b 191 381 201 364 201 342 b 201 284 153 208 91 136 b 70 202 63 274 63 332 b 63 345 -21 330 -21 298 b -21 216 6 140 39 81 b -49 -7 -145 -75 -180 -75 b -193 -75 -173 -98 -160 -98 b -131 -98 -35 -33 61 45 b 94 -5 129 -37 145 -37 b 178 -37 191 -24 183 -17 b 152 12 128 48 110 87 b 206 169 289 257 289 294 z"},")":{"x_min":0,"x_max":334,"ha":334,"o":"m 233 640 b 233 627 279 620 279 504 b 279 284 44 -6 -70 -88 b -84 -98 -79 -110 -58 -110 b 21 -110 377 305 377 463 b 377 596 272 652 247 652 b 239 652 233 647 233 640 z"},"&":{"x_min":0,"x_max":492,"ha":492,"o":"m 520 476 b 520 533 454 581 412 581 b 241 581 101 371 101 228 b 101 208 102 189 105 171 b 32 114 -24 63 -24 31 b -24 -34 21 -87 97 -87 b 136 -87 182 -75 227 -53 b 280 -102 338 -129 374 -129 b 378 -129 393 -128 393 -119 b 393 -114 334 -86 279 -25 b 350 21 406 86 406 150 b 406 210 314 232 314 209 b 314 194 341 218 341 185 b 341 139 294 80 237 33 b 216 68 200 108 193 156 b 331 280 520 410 520 476 z m 449 537 b 465 537 476 529 476 508 b 476 444 326 336 190 235 b 205 406 373 537 449 537 z m 66 -50 b 56 -50 52 -47 52 -35 b 52 1 82 45 126 92 b 141 56 161 23 183 -5 b 139 -32 96 -50 66 -50 z"},"_":{"x_min":0,"x_max":603,"ha":603,"o":"m -82 -64 b -82 -72 -63 -79 -44 -79 b -22 -79 11 -68 213 -68 b 465 -68 429 -89 455 -89 b 494 -89 454 -10 415 -10 b 81 -10 -82 -45 -82 -64 z"},"v":{"x_min":0,"x_max":252,"ha":252,"o":"m 396 460 b 339 460 150 213 22 40 b 60 127 107 244 107 281 b 107 320 44 348 24 348 b 4 348 4 339 4 339 b 4 327 28 336 28 294 b 28 217 -79 6 -79 -3 b -79 -34 -36 -73 -26 -58 b -26 -58 345 409 461 409 b 473 409 471 402 481 402 b 493 402 450 460 396 460 z"},"O":{"x_min":0,"x_max":579,"ha":579,"o":"m 390 652 b 362 652 326 631 288 596 b 279 601 271 604 261 604 b 183 604 -2 262 -2 109 b -2 -27 105 -119 186 -119 b 304 -119 584 213 584 458 b 584 549 477 652 390 652 z m 140 -74 b 91 -74 78 -15 78 55 b 78 92 89 140 105 192 b 121 154 149 134 172 134 b 208 134 239 189 226 189 b 213 189 213 169 188 169 b 168 169 170 208 170 208 b 170 356 355 588 463 588 b 516 588 518 536 518 486 b 518 354 262 -74 140 -74 z"},"(":{"x_min":0,"x_max":362,"ha":362,"o":"m 483 597 b 437 597 20 278 20 16 b 20 -140 176 -128 176 -110 b 176 -93 116 -115 116 1 b 116 245 429 542 489 568 b 513 581 517 597 483 597 z"},"C":{"x_min":0,"x_max":460,"ha":460,"o":"m 259 177 b 384 177 562 451 562 525 b 562 582 463 639 443 639 b 331 639 -67 279 -67 38 b -67 -135 79 -190 143 -190 b 339 -190 460 32 460 51 b 460 85 336 -138 112 -138 b 22 -138 0 -89 0 -39 b 0 225 409 562 481 562 b 490 562 493 558 493 551 b 493 432 284 197 233 197 b 211 197 232 177 259 177 z"},"W":{"x_min":0,"x_max":648,"ha":648,"o":"m 1061 700 b 927 700 585 284 408 48 b 445 136 506 250 542 286 b 556 300 523 345 485 345 b 482 345 476 339 467 328 l 238 108 b 338 251 442 419 442 499 b 442 536 400 634 323 634 b 163 634 -72 415 -72 285 b -72 225 32 185 32 205 b 32 224 7 212 7 259 b 7 357 225 582 356 582 b 368 582 375 571 375 542 b 375 389 -3 -51 -3 -82 b -3 -82 -3 -83 -3 -83 b -3 -83 -3 -83 -3 -84 b -3 -84 -3 -84 -3 -85 b 1 -119 75 -170 75 -137 b 75 -110 291 105 389 202 b 346 122 305 31 305 -6 b 305 -41 379 -97 379 -51 b 439 62 946 643 1091 643 b 1108 643 1096 634 1107 634 b 1125 634 1110 700 1061 700 z"},"A":{"x_min":0,"x_max":414,"ha":414,"o":"m 540 582 b 540 596 525 648 472 648 b 472 648 471 647 470 646 b 403 589 298 471 185 341 b 9 328 -178 267 -178 208 b -178 155 -129 162 -129 172 b -129 182 -157 175 -157 190 b -157 225 -6 282 149 301 b -60 60 -288 -204 -362 -204 b -398 -204 -353 -237 -320 -237 b -241 -237 -43 35 188 304 b 206 306 225 306 243 306 b 259 306 274 306 288 305 b 222 170 165 36 165 -8 b 165 -62 242 -114 242 -79 b 242 0 310 151 381 288 b 401 281 404 276 404 282 b 404 291 402 301 392 311 b 466 453 540 576 540 582 z m 253 344 b 243 344 232 344 222 344 b 284 414 348 484 412 548 b 381 492 343 418 306 342 b 290 343 273 344 253 344 z"},"f":{"x_min":0,"x_max":213,"ha":213,"o":"m 263 555 b 232 555 112 390 16 200 b -17 191 -9 184 2 174 b -63 41 -113 -91 -113 -194 b -113 -219 -69 -247 -48 -247 b -46 -247 -44 -247 -43 -247 b 8 -238 95 -87 95 34 b 95 86 86 117 78 134 b 80 138 82 143 84 147 b 115 145 146 147 174 152 b 210 159 241 171 258 184 b 286 206 281 254 271 246 b 264 241 271 237 256 226 b 213 192 154 175 98 174 b 161 294 240 414 323 497 b 338 512 293 555 263 555 z m 65 33 b 65 -72 -6 -213 -40 -219 b -41 -217 -41 -214 -41 -210 b -41 -149 -4 -39 57 92 b 62 76 65 56 65 33 z"},"Q":{"x_min":0,"x_max":579,"ha":579,"o":"m 346 29 b 463 144 586 345 586 507 b 586 598 478 701 392 701 b 363 701 326 679 290 645 b 282 648 273 652 263 652 b 186 652 0 313 -1 159 b -30 165 -60 169 -86 169 b -133 169 -162 131 -162 100 b -162 81 -131 76 -131 84 b -131 91 -143 89 -143 97 b -143 104 -139 118 -83 118 b -55 118 -26 114 4 109 b 25 0 117 -70 188 -70 b 217 -70 259 -48 304 -10 b 546 -145 583 -224 583 -240 b 583 -263 618 -242 618 -170 b 618 -138 583 -92 346 29 z m 106 241 b 123 203 151 182 175 182 b 210 182 241 238 228 238 b 215 238 214 218 190 218 b 169 218 172 256 172 256 b 172 405 355 638 465 638 b 518 638 520 584 520 534 b 520 440 390 197 272 65 b 207 95 142 119 83 138 b 87 169 95 204 106 241 z m 142 -24 b 96 -24 82 26 80 90 b 129 73 182 51 233 26 b 200 -6 167 -24 142 -24 z"},"w":{"x_min":0,"x_max":495,"ha":495,"o":"m 398 334 b 385 337 383 322 389 315 b 394 307 396 291 396 270 b 396 179 291 22 249 22 b 246 22 245 31 245 37 b 245 89 295 157 295 166 b 295 175 266 208 242 208 b 238 208 234 204 228 197 b 228 197 45 -15 24 -15 b 24 -15 23 -15 23 -15 b 23 -15 23 -15 23 -15 b 23 87 192 300 234 300 b 261 300 225 357 175 357 b 108 357 -54 146 -54 21 b -54 -34 11 -62 25 -56 b 57 -50 144 60 190 121 b 185 103 181 85 181 69 b 181 22 220 0 238 0 b 366 0 471 198 471 264 b 471 305 426 327 398 334 z"},"-":{"x_min":0,"x_max":427,"ha":427,"o":"m 18 268 b 18 259 30 253 43 253 b 57 253 78 264 210 264 b 374 264 338 243 368 243 b 393 243 372 321 328 321 b 110 321 18 286 18 268 z"},"E":{"x_min":0,"x_max":545,"ha":545,"o":"m 603 622 b 572 622 507 603 439 580 b 433 596 402 622 366 622 b 358 622 316 577 263 509 b 239 497 224 488 224 484 b 224 478 224 469 225 458 b 121 317 0 120 0 8 b 0 -71 90 -141 143 -141 b 317 -141 534 7 546 20 b 559 32 512 92 499 79 b 442 22 181 -85 114 -85 b 79 -85 69 -64 69 -43 b 69 -3 92 57 127 124 b 207 167 358 245 413 245 b 429 245 438 234 438 249 b 438 264 407 311 370 311 b 335 311 261 276 196 243 b 244 318 298 394 343 454 b 429 496 551 550 630 550 b 653 550 670 537 670 555 b 670 572 632 622 603 622 z"},"s":{"x_min":0,"x_max":202,"ha":202,"o":"m 198 355 b 198 369 153 402 125 402 b 70 402 -14 298 -14 235 b -14 155 44 87 44 59 b 44 14 -38 -13 -82 -13 b -105 -13 -99 -8 -106 -8 b -111 -8 -115 -11 -115 -21 b -115 -43 -85 -75 -33 -75 b 19 -75 101 -27 101 31 b 101 89 43 121 43 191 b 43 261 168 353 182 353 b 187 353 187 348 191 348 b 193 348 198 349 198 355 z"},">":{"x_min":0,"x_max":310,"ha":310,"o":"m 18 386 b 7 386 3 318 20 301 b 38 284 163 207 238 177 b 139 133 61 93 61 54 b 61 40 74 40 78 50 b 89 80 277 156 286 158 b 295 160 301 227 282 231 b 27 320 32 386 18 386 z"},"l":{"x_min":0,"x_max":175,"ha":175,"o":"m 278 632 b 226 632 -46 183 -46 2 b -46 -40 28 -74 28 -54 b 28 -38 20 -39 20 -17 b 20 95 177 419 338 580 b 353 595 317 632 278 632 z"},"8":{"x_min":0,"x_max":403,"ha":403,"o":"m 417 504 b 417 569 325 619 291 619 b 210 619 86 494 86 411 b 86 358 141 320 162 317 b 62 232 -40 143 -40 67 b -40 34 -12 -49 83 -49 b 179 -49 290 76 290 154 b 290 209 253 245 215 261 b 314 345 417 431 417 504 z m 210 177 b 210 114 130 14 47 14 b 38 14 33 23 33 36 b 33 97 107 168 191 240 b 201 228 210 208 210 177 z m 187 339 b 181 344 162 340 162 368 b 162 432 263 558 335 558 b 345 558 352 550 352 535 b 352 482 274 413 187 339 z"},"\\":{"x_min":0,"x_max":247,"ha":247,"o":"m 297 -87 b 310 -47 34 700 1 710 b -32 720 -122 693 -95 656 b 92 448 248 -50 235 -93 b 226 -121 284 -131 297 -87 z"},"e":{"x_min":0,"x_max":285,"ha":285,"o":"m 285 180 b 229 116 127 16 52 16 b 46 16 40 24 40 38 b 40 58 48 84 61 110 b 67 104 76 99 85 99 b 131 99 234 192 234 243 b 234 268 182 324 142 324 b 118 324 -32 190 -32 83 b -32 38 32 -14 65 -14 b 136 -14 246 98 303 166 z m 195 262 b 235 262 134 142 70 127 b 106 194 166 262 195 262 z"},"b":{"x_min":0,"x_max":451,"ha":451,"o":"m 326 382 b 277 382 122 196 59 112 b 116 253 247 460 309 522 b 327 540 265 572 239 572 b 195 572 -45 125 -45 56 b -45 17 31 -10 31 8 b 31 13 32 20 33 26 b 89 104 295 350 333 350 b 339 350 343 343 343 325 b 343 248 123 -55 42 -55 b -8 -55 0 -14 -14 -14 b -27 -14 -34 -101 81 -101 b 196 -101 413 137 413 296 b 413 330 355 382 326 382 z"},"%":{"x_min":0,"x_max":521,"ha":521,"o":"m 483 530 b 431 530 24 111 24 33 b 24 8 48 -7 48 7 b 48 62 407 476 514 476 b 529 476 524 467 531 467 b 557 467 523 530 483 530 z m 190 546 b 133 546 28 434 28 376 b 28 350 74 288 122 288 b 190 288 243 356 243 406 b 243 445 195 462 195 449 b 195 441 200 443 200 428 b 200 398 139 323 98 323 b 90 323 84 328 84 341 b 84 399 191 499 230 499 b 239 499 235 494 243 494 b 257 494 233 546 190 546 z m 397 324 b 342 324 190 181 190 97 b 190 68 240 8 286 8 b 366 8 469 121 469 168 b 469 210 411 236 411 219 b 411 116 320 39 274 39 b 257 39 251 47 251 58 b 251 126 381 268 443 268 b 452 268 446 264 455 264 b 468 264 434 324 397 324 z"},"m":{"x_min":0,"x_max":558,"ha":558,"o":"m 558 180 b 501 116 420 1 367 1 b 361 1 359 6 359 11 b 359 61 474 223 474 255 b 474 284 420 323 409 303 l 234 96 b 265 162 304 233 304 250 b 304 278 255 327 247 312 l 43 75 b 103 179 166 299 166 352 b 166 389 79 431 79 413 b 79 406 86 404 86 394 b 86 283 -126 -19 -126 -41 b -126 -92 -59 -137 -59 -111 b -59 -111 -59 -111 -59 -111 l -57 -104 b -56 -102 -55 -100 -54 -98 b -25 -43 134 142 209 227 b 173 161 125 75 125 53 b 125 18 195 -40 195 -11 b 195 4 281 108 343 181 b 311 129 280 72 280 36 b 280 -3 338 -48 357 -48 b 422 -48 519 98 575 166 l 558 180 z"},"#":{"x_min":0,"x_max":601,"ha":601,"o":"m 487 316 b 463 316 437 315 412 313 b 432 340 451 361 464 371 b 483 384 468 418 415 418 b 397 418 363 368 328 306 b 305 303 282 300 260 296 b 287 335 313 366 330 379 b 348 392 334 425 280 425 b 260 425 218 359 178 282 b 92 265 31 247 31 241 b 31 221 41 207 49 207 b 53 207 88 221 154 233 b 147 219 140 205 134 191 b 58 176 7 160 7 155 b 7 140 14 128 21 128 b 25 128 44 140 115 149 b 93 99 78 59 78 49 b 78 36 118 8 118 32 b 118 48 141 98 173 155 b 196 157 224 158 255 159 b 232 108 216 67 216 57 b 216 44 257 16 257 40 b 257 57 280 105 311 160 b 321 160 330 160 340 160 b 454 160 460 130 477 130 b 514 130 443 220 411 220 b 389 220 368 219 346 218 b 354 230 361 242 369 254 b 378 254 386 254 395 254 b 536 254 503 226 524 226 b 546 226 526 316 487 316 z m 280 212 b 252 210 226 206 200 202 b 209 216 217 230 226 244 b 248 247 272 249 299 251 b 292 238 286 225 280 212 z"},",":{"x_min":0,"x_max":174,"ha":174,"o":"m 31 -5 b 31 -73 -40 -111 -40 -127 b -40 -133 -36 -138 -28 -138 b -3 -138 116 -33 116 7 b 116 27 93 45 69 45 b 30 45 17 32 17 24 b 17 16 31 16 31 -5 z"},"n":{"x_min":0,"x_max":359,"ha":359,"o":"m 359 180 b 303 116 225 10 172 10 b 167 10 161 14 161 23 b 161 65 257 212 257 235 b 257 251 211 285 200 285 b 192 285 109 177 40 86 b 84 165 126 246 126 273 b 126 296 78 332 63 331 b 59 331 58 329 58 323 b 58 238 -121 7 -121 -45 b -121 -68 -95 -104 -76 -114 b -75 -114 -75 -114 -75 -114 b -65 -119 -58 -114 -59 -109 b -59 -104 -57 -99 -54 -92 b -34 -57 72 88 137 170 b 116 123 98 76 98 58 b 98 31 132 -20 165 -20 b 230 -20 320 98 377 166 z"},"h":{"x_min":0,"x_max":412,"ha":412,"o":"m 412 180 b 355 116 244 -48 209 -48 b 205 -48 203 -45 203 -39 b 203 24 288 158 288 174 b 288 190 254 230 226 230 b 194 230 65 88 24 42 b 44 90 82 158 126 228 b 229 284 341 390 341 415 b 341 429 313 449 313 427 b 313 402 242 341 166 291 b 241 403 322 501 358 501 b 393 501 341 554 295 554 b 249 554 107 369 19 216 b 14 215 9 214 5 214 b -4 214 -3 201 7 195 b -30 128 -55 70 -55 39 b -55 12 8 -35 8 -12 b 8 -10 8 -8 8 -5 l 8 -12 b 8 -12 108 105 184 176 b 149 106 111 -13 111 -53 b 111 -84 152 -120 177 -120 b 242 -120 372 97 429 166 l 412 180 z"},"z":{"x_min":0,"x_max":307,"ha":307,"o":"m 15 288 b 82 288 263 363 263 366 b 263 369 264 373 254 373 b 217 373 104 331 19 331 b -40 331 -26 339 -38 339 b -43 339 -45 334 -45 329 b -45 316 -27 288 15 288 z m 258 -22 b 239 -22 228 -22 209 -23 l 209 -20 b 209 72 122 98 74 98 b 53 98 34 94 19 88 b 90 162 314 290 314 306 b 314 364 272 385 272 365 b 272 353 -59 175 -59 107 b -59 67 -10 36 -3 48 l 3 61 b 14 66 37 73 70 73 b 121 73 146 38 146 3 b 146 -8 144 -20 140 -33 b 2 -58 -108 -122 -108 -164 b -108 -182 -94 -190 -94 -184 b -94 -151 -13 -106 113 -83 b 61 -156 -30 -217 -74 -217 b -115 -217 -120 -183 -132 -183 b -144 -183 -148 -249 -33 -249 b 61 -249 167 -156 198 -72 b 227 -68 248 -68 279 -68 b 310 -68 297 -80 310 -80 b 324 -80 296 -22 258 -22 z"},"B":{"x_min":0,"x_max":580,"ha":580,"o":"m 393 282 b 485 336 567 413 567 488 b 567 528 514 657 373 657 b 158 657 -67 458 -67 358 b -67 275 24 241 24 266 b 24 286 -1 277 -1 316 b -1 395 237 587 411 587 b 444 587 530 575 530 514 b 530 460 371 326 257 295 b 308 371 362 443 407 491 b 424 510 378 529 339 529 b 287 529 3 67 3 3 b 3 -45 66 -84 66 -65 b 66 -29 117 72 185 183 b 192 174 199 168 207 168 b 231 168 299 229 404 229 b 437 229 466 220 466 191 b 466 90 175 -133 -53 -133 b -118 -133 -130 -111 -130 -92 b -130 -73 -156 -69 -156 -94 b -156 -124 -138 -189 17 -189 b 244 -189 514 11 514 149 b 514 214 457 262 393 282 z"},"K":{"x_min":0,"x_max":426,"ha":426,"o":"m 616 561 b 571 561 373 358 227 182 b 300 313 374 438 374 510 b 374 591 266 652 223 652 b 60 652 -128 442 -128 285 b -128 201 -16 150 -16 184 b -16 203 -47 187 -47 257 b -47 414 176 601 265 601 b 284 601 291 589 290 569 b 290 412 0 5 0 -110 b 0 -157 82 -224 82 -174 b 82 -115 111 -40 151 40 b 154 44 158 49 162 53 b 194 -17 259 -94 330 -94 b 355 -94 397 -58 372 -58 b 326 -58 259 58 225 125 b 367 285 585 520 642 520 b 650 520 647 516 652 516 b 668 516 640 561 616 561 z"},"R":{"x_min":0,"x_max":461,"ha":461,"o":"m 485 -107 b 465 -107 475 -165 415 -165 b 279 -165 198 16 149 119 b 315 127 593 293 593 503 b 593 604 453 719 371 719 b 142 719 -75 467 -75 335 b -75 251 36 228 36 244 b 36 260 -2 248 -2 288 b -2 455 267 649 405 649 b 477 649 526 621 526 523 b 526 403 329 220 159 185 b 229 305 325 440 411 526 b 422 538 407 574 342 574 b 283 574 0 104 0 -2 b 0 -25 58 -78 58 -49 b 58 -26 72 16 96 67 b 142 -35 243 -206 373 -206 b 466 -206 506 -107 485 -107 z"},"T":{"x_min":0,"x_max":424,"ha":424,"o":"m 890 642 b 780 642 678 634 587 620 b 575 626 560 630 541 630 b 533 630 522 622 508 607 b 200 547 21 432 0 410 b -14 397 -30 355 -30 321 b -30 267 207 247 245 195 b 169 57 110 -68 110 -97 b 110 -138 180 -184 180 -139 b 180 -64 431 369 563 533 b 639 543 723 548 813 548 b 940 548 941 541 956 541 b 989 541 950 642 890 642 z m 265 231 b 234 280 12 318 12 336 b 12 349 160 453 435 511 b 383 434 321 331 265 231 z"},"P":{"x_min":0,"x_max":534,"ha":534,"o":"m 613 418 b 613 547 504 660 399 660 b 154 660 -94 404 -94 293 b -94 175 14 174 14 195 b 14 216 -29 194 -29 252 b -29 367 204 594 407 594 b 526 594 563 535 563 484 b 563 379 376 194 170 134 b 239 263 320 382 343 382 b 361 382 327 436 281 436 b 239 436 138 267 69 115 b 60 114 51 114 41 114 b -36 114 -42 161 -61 161 b -78 161 -61 83 46 62 b 18 -5 0 -64 0 -95 b 0 -135 61 -185 61 -154 b 61 -108 91 -28 132 57 b 294 73 613 225 613 418 z"},"|":{"x_min":0,"x_max":235,"ha":235,"o":"m 91 -69 b 117 -99 163 -75 147 -56 b 122 -27 103 402 201 615 b 213 651 126 647 100 630 b 75 612 68 -41 91 -69 z"},"t":{"x_min":0,"x_max":179,"ha":179,"o":"m 364 531 b 348 532 323 533 292 533 b 321 574 350 608 377 635 b 388 647 358 687 315 687 b 291 687 238 624 179 534 b 43 532 -113 526 -114 513 b -114 513 -110 500 -95 499 b -81 497 -20 499 148 484 b 47 318 -60 90 -60 -30 b -60 -97 14 -126 14 -106 b 14 -95 7 -99 7 -83 b 7 35 126 288 250 474 b 349 460 353 447 391 444 b 437 440 396 528 364 531 z"},"M":{"x_min":0,"x_max":772,"ha":772,"o":"m 624 -65 b 612 -65 608 -52 608 -35 b 608 124 882 428 882 440 b 882 452 856 480 823 480 b 812 480 792 463 767 437 b 708 383 585 266 485 136 b 541 251 654 395 654 402 b 654 413 621 436 588 436 b 583 436 578 433 571 428 b 525 398 415 277 305 141 b 422 328 531 516 531 585 b 531 637 482 714 391 714 b 259 714 -29 470 -29 258 b -29 165 73 143 73 166 b 73 176 48 171 48 241 b 48 436 327 663 432 663 b 450 663 459 653 459 640 b 459 478 56 -72 56 -87 b 56 -88 56 -89 57 -90 b 57 -91 57 -91 57 -91 b 57 -92 58 -93 58 -94 b 59 -95 59 -96 60 -97 b 60 -97 60 -97 60 -97 b 74 -117 118 -149 147 -149 b 163 -149 294 89 451 254 b 412 180 380 105 380 76 b 380 64 420 29 443 22 b 449 21 451 25 451 29 b 451 46 560 178 641 265 b 586 176 541 79 541 18 b 541 -49 606 -89 627 -89 b 654 -89 642 -65 624 -65 z"},"g":{"x_min":0,"x_max":362,"ha":362,"o":"m 248 263 b 248 263 53 -33 2 -33 b 2 96 217 315 251 315 b 268 315 261 289 268 289 b 285 289 284 300 284 318 b 284 335 249 367 218 367 b 107 367 -69 116 -69 2 b -69 -43 -30 -81 -8 -81 b 50 -81 184 123 237 207 b 202 79 83 -190 -37 -190 b -63 -190 -67 -164 -72 -164 b -91 -164 -69 -232 23 -232 b 140 -232 316 81 316 219 b 316 239 248 284 248 263 z"},"j":{"x_min":0,"x_max":218,"ha":218,"o":"m 83 295 b 82 294 82 293 82 292 b 82 275 6 186 -8 171 b -21 155 -4 140 10 156 b 16 163 38 188 59 214 b -5 59 -155 -184 -200 -184 b -242 -184 -227 -140 -241 -140 b -255 -140 -261 -171 -261 -184 b -261 -198 -248 -249 -174 -249 b -35 -249 154 165 154 230 b 154 293 87 323 83 295 z m 225 575 b 203 575 140 449 140 417 b 140 389 202 353 202 369 b 202 386 280 493 302 515 b 324 537 246 575 225 575 z"},"i":{"x_min":0,"x_max":192,"ha":192,"o":"m 223 553 b 208 553 106 384 106 370 b 106 341 157 304 157 320 b 157 345 252 479 277 504 b 291 518 249 553 223 553 z m 25 36 b 22 36 21 40 21 46 b 21 89 122 220 122 237 b 122 261 55 307 55 282 b 55 261 -49 119 -49 60 b -49 2 -16 -20 -2 -20 b 63 -20 153 98 209 166 l 192 180 b 142 116 78 36 25 36 z"},"y":{"x_min":0,"x_max":331,"ha":331,"o":"m 220 233 b 204 233 215 223 215 213 b 215 167 32 -47 -31 -48 b -23 18 184 280 184 310 b 184 333 136 369 120 368 b 116 368 115 366 115 360 b 115 321 -102 68 -102 -14 b -102 -44 -54 -77 -36 -78 b -36 -78 -35 -79 -35 -79 b -32 -79 -29 -78 -28 -78 b 39 -70 139 48 195 124 b 140 -18 -21 -195 -133 -195 b -164 -195 -158 -165 -174 -165 b -200 -165 -157 -250 -76 -250 b 77 -250 278 36 278 158 b 278 228 231 233 220 233 z"},"@":{"x_min":0,"x_max":697,"ha":697,"o":"m 595 200 b 595 190 604 194 604 169 b 604 121 431 -114 226 -114 b 86 -114 64 -12 64 54 b 64 150 244 398 441 398 b 518 398 546 354 546 301 b 546 211 409 42 376 42 b 361 42 363 55 363 55 b 363 68 421 189 434 208 b 446 228 401 260 388 260 b 386 260 378 249 369 233 b 326 173 222 33 193 33 b 189 33 188 37 188 42 b 188 95 303 255 345 255 b 358 255 373 235 373 250 b 373 266 338 298 295 298 b 252 298 129 145 129 78 b 129 46 177 4 200 4 b 226 4 281 77 325 141 b 314 114 306 89 306 75 b 306 43 349 18 367 18 b 448 18 573 217 573 291 b 573 365 497 433 380 433 b 173 433 3 206 3 58 b 3 -23 62 -131 234 -131 b 480 -131 653 52 653 132 b 653 193 595 228 595 200 z"},".":{"x_min":0,"x_max":210,"ha":210,"o":"m 15 21 b 15 0 29 -11 51 -11 b 73 -11 96 21 96 46 b 96 61 83 76 62 76 b 40 76 15 37 15 21 z"},"p":{"x_min":0,"x_max":447,"ha":447,"o":"m 356 411 b 319 411 152 238 31 62 b 87 174 144 280 158 294 b 164 300 149 330 89 330 b 69 330 -163 -134 -163 -173 b -163 -213 -86 -226 -86 -209 b -86 -204 -84 -193 -79 -179 l -79 -179 b 42 44 312 367 356 367 b 360 367 361 362 361 356 b 361 287 201 -3 117 -3 b 95 -3 111 21 94 21 b 77 21 68 -55 166 -55 b 264 -55 432 203 432 340 b 432 388 376 411 356 411 z"},"X":{"x_min":0,"x_max":456,"ha":456,"o":"m 622 593 b 559 593 416 490 276 362 b 269 421 264 485 264 556 b 264 580 287 604 250 604 b 210 604 166 574 166 533 b 166 444 177 360 194 283 b 52 143 -66 -6 -66 -73 b -66 -152 33 -216 33 -157 b 33 -145 8 -150 8 -128 b 8 -68 103 57 222 181 b 289 -15 402 -140 498 -140 b 520 -140 548 -107 521 -107 b 470 -107 351 1 295 254 b 448 401 618 531 683 531 b 700 531 697 522 707 522 b 739 522 699 593 622 593 z"},"*":{"x_min":0,"x_max":258,"ha":258,"o":"m 194 434 b 192 437 191 439 151 444 b 161 452 171 461 183 468 b 186 471 187 474 186 479 b 185 486 175 495 170 496 l 170 496 b 167 496 164 495 151 481 b 145 474 138 466 129 455 b 122 468 116 482 111 497 b 109 501 106 502 102 502 b 95 502 86 493 85 488 b 83 485 83 482 105 447 b 96 448 88 448 81 449 b 64 449 63 449 61 448 b 55 444 54 436 57 429 b 60 426 62 426 70 426 b 77 426 88 426 103 424 b 97 417 92 411 88 405 b 77 392 77 391 77 389 b 76 381 80 375 87 374 b 91 373 92 376 98 383 b 102 391 111 402 124 417 b 132 405 140 394 146 385 b 159 367 160 366 162 366 b 164 365 165 365 166 365 b 171 365 176 369 177 375 b 178 378 176 380 171 388 b 166 394 159 402 151 416 b 161 413 172 410 183 406 b 186 405 190 406 192 410 b 196 416 197 429 194 434 z"},"Y":{"x_min":0,"x_max":504,"ha":504,"o":"m 418 363 b 418 321 212 115 114 81 b 168 157 358 380 358 512 b 358 571 288 651 216 651 b 55 651 -162 429 -162 299 b -162 238 -58 199 -58 219 b -58 238 -83 226 -83 273 b -83 371 135 595 266 595 b 281 595 293 586 293 555 b 293 414 40 149 40 108 b 40 74 81 53 95 53 l 95 53 b 180 53 334 188 407 281 b 365 91 197 -156 113 -156 b 54 -156 40 -95 40 -46 b 40 -26 10 -44 10 -80 b 10 -117 45 -188 122 -188 b 335 -188 485 207 485 316 b 485 356 418 397 418 363 z"},"c":{"x_min":0,"x_max":304,"ha":304,"o":"m 211 243 b 211 202 163 150 140 150 b 125 150 150 120 178 120 b 196 120 261 181 261 236 b 261 276 192 312 176 312 b 63 312 -68 96 -68 27 b -68 -30 -11 -77 16 -77 b 135 -77 322 166 322 166 l 304 180 b 304 180 117 -40 17 -40 b 5 -40 0 -30 0 -20 b 0 57 138 253 197 253 b 206 253 211 250 211 243 z"},"!":{"x_min":0,"x_max":238,"ha":238,"o":"m -24 -12 b -24 8 7 58 26 58 b 45 58 81 45 81 27 b 81 9 56 -47 28 -47 b 0 -47 -24 -39 -24 -12 z m 260 620 b 240 620 54 209 54 151 b 54 137 68 110 87 110 b 87 110 320 526 320 570 b 320 597 281 620 260 620 z"},"/":{"x_min":0,"x_max":314,"ha":314,"o":"m -50 -46 b -50 -92 8 -99 8 -70 b 8 -25 305 404 546 547 b 583 574 505 627 470 627 b 436 627 -50 -4 -50 -46 z"},"[":{"x_min":0,"x_max":333,"ha":333,"o":"m 451 616 b 438 616 299 607 290 599 b 282 590 -43 -50 -43 -66 b -43 -81 -30 -109 -7 -109 b -9 -109 161 -110 168 -110 b 180 -110 164 -46 140 -46 b 117 -46 21 -63 21 -63 b 21 -63 108 208 337 544 b 337 544 367 550 416 550 b 464 550 479 532 489 532 b 498 532 489 616 451 616 z"},"6":{"x_min":0,"x_max":475,"ha":475,"o":"m 353 593 b 264 593 -1 327 -1 101 b -1 39 56 -63 154 -63 b 268 -63 412 87 412 189 b 412 243 352 305 289 305 b 226 305 176 242 176 232 b 176 227 180 226 184 226 b 199 226 227 268 296 268 b 329 268 339 247 339 224 b 339 144 185 -18 123 -18 b 84 -18 72 16 72 44 b 72 222 316 527 435 527 b 447 527 444 520 453 520 b 466 520 443 593 353 593 z"},"r":{"x_min":0,"x_max":304,"ha":304,"o":"m 304 180 b 247 116 125 -54 81 -54 b 78 -54 75 -52 75 -45 b 75 7 247 185 247 224 b 247 247 207 299 181 299 b 173 299 153 301 128 305 b 191 391 247 481 247 528 b 247 547 205 575 186 575 b 49 575 -65 401 -65 353 b -65 297 7 280 70 270 b 43 234 16 199 -7 172 b -30 145 -13 129 10 156 b 36 186 68 225 99 266 b 135 262 161 259 161 251 b 161 237 -25 45 -25 -34 b -25 -50 19 -112 47 -112 b 119 -112 265 97 321 166 z m 16 339 b 16 407 207 550 207 506 b 207 474 157 391 99 310 b 57 317 16 327 16 339 z"},"2":{"x_min":0,"x_max":490,"ha":490,"o":"m 321 88 b 274 88 182 53 96 27 b 211 180 497 379 497 505 b 497 542 461 590 415 590 b 260 590 37 397 37 346 b 37 297 84 251 114 251 b 125 251 128 258 128 267 b 128 277 119 282 119 304 b 119 371 326 552 421 552 b 429 552 435 546 435 530 b 435 459 1 93 1 24 b 1 -7 29 -47 54 -47 b 70 -47 211 17 284 17 b 350 17 387 -20 394 -20 b 448 -20 349 88 321 88 z"},"{":{"x_min":0,"x_max":295,"ha":295,"o":"m 329 566 b 183 566 165 251 75 251 b 69 251 59 252 59 242 b 59 232 71 232 71 187 b 71 126 -26 9 -26 -40 b -26 -114 48 -129 48 -110 b 48 -100 38 -101 38 -81 b 38 -27 138 106 138 162 b 138 217 113 231 113 231 b 212 231 246 520 357 520 b 370 520 366 515 372 515 b 379 515 374 566 329 566 z"},"9":{"x_min":0,"x_max":392,"ha":392,"o":"m 281 481 b 281 476 280 468 278 460 b 239 412 101 244 79 244 b 71 244 68 252 68 264 b 68 334 209 539 264 539 b 296 539 295 524 303 524 b 311 524 313 531 313 542 b 313 567 261 610 213 610 b 124 610 -21 403 -21 304 b -21 261 10 202 68 202 b 98 202 192 313 251 386 b 190 245 59 11 59 -5 b 59 -53 165 -108 165 -68 b 165 43 369 394 369 416 b 369 462 281 518 281 481 z"}," ":{"x_min":0,"x_max":250,"ha":250,"o":""},"I":{"x_min":0,"x_max":424,"ha":424,"o":"m -14 275 b -14 179 120 145 123 175 b 124 186 64 153 64 256 b 64 386 274 607 323 607 b 334 607 353 588 353 491 b 353 255 35 -146 -25 -146 b -43 -146 -9 -187 28 -187 b 116 -187 428 226 428 471 b 428 619 342 652 286 652 b 204 652 -14 405 -14 275 z"},"H":{"x_min":0,"x_max":515,"ha":515,"o":"m 647 697 b 635 697 626 694 618 686 b 563 635 466 478 378 314 b 330 311 279 304 231 294 b 303 428 383 560 433 607 b 447 620 401 673 377 650 b 367 641 356 626 342 609 b 220 475 -50 269 -50 246 b -50 221 -23 177 16 177 b 30 177 57 186 95 195 b 42 93 2 0 2 -33 b 2 -83 81 -130 83 -98 b 83 -86 77 -89 80 -45 b 81 -14 129 96 190 217 b 233 225 281 231 336 232 b 254 73 192 -76 192 -131 b 192 -179 296 -235 296 -203 b 296 -186 292 -189 292 -153 b 292 -107 350 55 433 227 b 468 219 495 210 506 210 b 540 210 491 285 473 306 b 545 441 630 571 713 650 b 732 668 688 697 647 697 z m -3 238 b -16 238 137 366 237 448 b 202 393 169 333 137 273 b 62 255 5 238 -3 238 z"},"4":{"x_min":0,"x_max":404,"ha":404,"o":"m 301 551 b 293 551 236 443 181 324 b 145 317 112 308 83 299 b 135 375 196 490 187 548 b 183 575 126 609 130 584 b 141 503 -30 263 -29 254 b -27 242 0 193 25 193 b 31 193 74 213 137 230 b 92 130 57 40 60 19 b 68 -32 152 -65 149 -49 b 147 -41 145 -42 145 -28 b 139 4 183 128 240 250 b 260 253 282 254 304 254 b 343 254 342 243 355 243 b 368 243 339 334 285 334 b 283 334 281 334 279 334 b 314 404 351 465 379 499 b 393 514 338 551 301 551 z"},"~":{"x_min":0,"x_max":393,"ha":393,"o":"m 153 664 b 122 664 94 641 94 633 b 94 626 100 623 100 623 b 107 626 116 627 128 627 b 172 627 183 586 224 586 b 277 586 305 632 305 639 b 305 647 300 650 294 650 b 288 650 270 633 229 633 b 204 633 191 664 153 664 z"},"D":{"x_min":0,"x_max":653,"ha":653,"o":"m 457 642 b 200 642 -63 364 -63 249 b -63 164 50 114 50 144 b 50 168 8 152 8 202 b 8 308 266 576 501 576 b 562 576 618 542 618 437 b 618 249 371 11 184 -69 b 225 46 367 299 447 379 b 464 396 402 428 380 428 b 339 428 104 2 104 -73 b 104 -80 106 -87 111 -93 b 96 -96 83 -98 70 -98 b 43 -98 15 -95 15 -72 b 15 -49 31 -50 31 -36 b 31 -21 -11 -50 -11 -70 b -11 -108 50 -158 126 -158 b 297 -158 674 130 674 393 b 674 525 576 642 457 642 z"},"^":{"x_min":0,"x_max":338,"ha":338,"o":"m 49 565 b 36 565 45 550 75 550 b 112 550 193 621 193 621 b 193 621 236 553 270 553 b 275 553 281 554 281 563 b 281 572 247 592 230 680 b 228 690 191 696 185 685 b 159 635 64 565 49 565 z"},"0":{"x_min":0,"x_max":493,"ha":493,"o":"m 328 573 b 240 573 0 330 0 139 b 0 94 65 -6 135 -6 b 293 -6 455 217 455 338 b 455 405 405 436 387 436 b 369 436 357 419 366 419 b 375 419 398 418 398 358 b 398 215 198 31 123 31 b 100 31 92 45 92 65 b 92 243 296 489 400 489 b 455 489 382 573 328 573 z"},"F":{"x_min":0,"x_max":395,"ha":395,"o":"m 824 642 b 804 655 728 682 623 682 b 242 682 -118 430 -118 288 b -118 168 59 211 59 102 l 59 102 b 24 35 0 -19 0 -42 b 0 -94 65 -131 65 -112 b 65 -42 170 146 271 299 b 321 306 377 309 433 309 b 479 309 443 380 411 380 b 382 380 352 379 323 375 b 364 433 402 480 427 506 b 445 524 395 546 372 546 b 351 546 284 461 213 355 b 107 328 30 285 30 253 b 30 245 36 218 45 226 b 65 247 107 265 164 279 b 132 229 101 177 74 130 b 75 135 75 140 75 146 b 75 224 -78 230 -78 271 b -78 312 171 595 612 595 b 811 595 854 529 875 529 b 910 529 844 628 824 642 z"},"`":{"x_min":0,"x_max":379,"ha":379,"o":"m 118 747 b 104 761 80 710 80 693 b 80 676 183 618 232 618 b 250 618 267 649 250 649 b 227 649 147 719 118 747 z"},"k":{"x_min":0,"x_max":350,"ha":350,"o":"m 447 -158 b 432 -151 434 -166 400 -151 b 284 -100 188 15 138 130 b 143 127 146 125 150 125 b 210 125 358 213 355 285 b 354 313 318 355 282 356 b 282 356 282 356 282 356 b 252 356 186 278 121 189 b 119 188 117 188 115 188 b 113 196 111 204 108 213 b 190 371 289 533 341 586 b 350 596 325 636 282 636 b 221 636 -102 21 -102 -58 b -101 -101 -21 -142 -22 -115 b -22 -100 -17 -76 -8 -48 b 17 0 52 57 91 114 b 117 45 156 -22 198 -76 b 243 -133 292 -174 330 -191 b 394 -220 470 -168 447 -158 z m 290 336 b 294 336 296 332 296 328 b 296 297 213 211 148 193 b 210 273 269 336 290 336 z m 78 152 b 80 146 81 140 83 136 b 68 114 53 92 40 72 b 51 97 64 124 78 152 z"},"u":{"x_min":0,"x_max":393,"ha":393,"o":"m 218 -17 b 263 -17 354 98 411 166 l 393 180 b 343 116 260 16 231 16 b 227 16 226 18 226 22 b 226 64 325 212 325 235 b 325 251 279 285 268 285 b 257 285 71 84 19 28 b 51 120 193 297 218 322 b 226 330 209 364 145 364 b 103 364 -59 99 -59 47 b -59 16 -15 -22 5 -22 b 6 -22 7 -22 8 -21 b 37 -9 152 122 217 194 b 191 140 166 79 166 58 b 166 31 185 -17 218 -17 z"},"]":{"x_min":0,"x_max":304,"ha":304,"o":"m 253 541 b 272 541 322 562 365 562 b 264 433 10 -36 10 -36 b 10 -36 -68 -37 -90 -37 b -111 -37 -83 -96 -58 -96 b -48 -96 31 -99 46 -99 b 61 -99 67 -94 69 -83 b 153 180 431 550 442 562 b 454 574 435 618 410 618 b 385 618 281 621 271 611 b 261 601 216 541 253 541 z"},"U":{"x_min":0,"x_max":527,"ha":527,"o":"m 485 434 b 481 434 470 422 456 400 b 418 348 87 -106 35 -106 b 30 -106 28 -102 28 -95 b 28 17 374 485 374 557 b 374 606 286 648 286 609 b 286 530 -54 47 -54 -42 b -54 -91 -9 -153 41 -153 b 97 -153 265 83 370 240 b 333 159 301 72 301 20 b 301 -27 364 -67 364 -48 b 364 92 558 369 558 383 b 558 402 531 434 485 434 z"},"o":{"x_min":0,"x_max":323,"ha":323,"o":"m 61 -23 b 154 -23 284 140 284 254 b 284 325 217 360 194 360 l 194 360 b 123 360 68 287 59 239 b 10 197 -36 140 -36 84 b -36 17 33 -23 61 -23 z m 44 6 b 27 6 27 20 27 27 b 27 64 61 115 101 161 b 115 152 128 150 128 157 b 128 162 125 167 125 178 l 126 187 b 153 214 176 231 189 231 b 202 231 201 226 205 226 b 215 226 202 266 157 276 b 174 307 196 325 212 325 b 242 325 241 286 241 274 b 241 130 90 6 44 6 z"},"N":{"x_min":0,"x_max":542,"ha":542,"o":"m 418 -8 b 418 96 554 299 554 326 b 554 348 532 382 503 392 b 499 394 494 395 487 395 b 486 395 485 395 485 395 b 437 395 228 103 130 -40 b 211 159 446 441 446 561 b 446 608 356 683 285 683 b 118 683 -59 467 -59 353 b -59 273 46 244 46 274 b 46 293 14 274 14 310 b 14 404 200 630 338 630 b 364 630 374 619 374 602 b 374 522 0 -15 0 -110 b 0 -166 82 -233 82 -176 b 82 -134 310 164 420 291 b 378 202 333 81 333 25 b 333 -41 438 -77 438 -48 b 438 -28 418 -44 418 -8 z"},"+":{"x_min":0,"x_max":373,"ha":373,"o":"m 304 319 b 274 319 247 319 223 318 b 251 367 275 402 282 410 b 298 429 194 497 203 448 b 205 438 179 378 150 314 b 13 304 -19 282 -18 273 b -17 266 -8 252 6 252 b 18 252 39 265 130 269 b 101 208 75 152 74 145 b 69 125 117 84 125 108 b 144 164 170 221 196 271 b 361 269 349 222 371 222 b 400 222 350 319 304 319 z"},"G":{"x_min":0,"x_max":643,"ha":643,"o":"m 596 342 b 425 342 250 299 250 208 b 250 182 258 151 276 151 b 284 151 288 152 288 162 b 288 168 284 174 284 185 b 284 199 344 244 482 262 b 445 221 178 -66 91 -66 b 78 -66 72 -57 72 -41 b 72 205 379 590 612 590 b 652 590 631 538 658 538 b 684 538 675 663 542 663 b 344 663 -16 271 -16 5 b -16 -60 58 -118 104 -118 b 157 -118 309 29 416 140 b 349 19 299 -79 299 -154 b 299 -218 380 -267 380 -238 b 380 -229 377 -226 377 -207 b 377 -41 555 221 601 267 b 601 267 601 268 602 269 b 668 268 672 254 689 254 b 724 254 683 342 596 342 z"},"q":{"x_min":0,"x_max":367,"ha":367,"o":"m 266 287 b 266 287 78 47 41 47 b 38 47 36 49 36 52 b 36 117 226 352 289 352 b 306 352 290 321 308 321 b 321 321 312 403 242 403 b 134 403 -44 149 -44 64 b -44 28 2 -6 24 -6 b 60 -6 144 90 206 170 b 128 32 6 -162 6 -186 b 6 -219 74 -267 74 -241 b 74 -180 321 181 321 234 b 321 268 266 299 266 287 z"},"d":{"x_min":0,"x_max":403,"ha":403,"o":"m 403 180 b 347 116 281 33 246 33 b 239 33 237 38 237 45 b 237 128 422 364 422 381 b 422 436 364 459 352 447 b 348 443 342 423 326 397 b 304 363 271 315 234 265 b 232 277 196 320 161 320 b 82 320 -74 97 -74 23 b -74 -16 -19 -56 2 -56 b 3 -56 4 -56 4 -56 b 26 -47 116 71 200 188 b 173 140 153 98 153 79 b 153 23 221 -5 246 -5 b 277 -5 364 98 421 166 l 403 180 z m 9 -12 b -30 -12 155 270 203 270 b 211 270 214 267 214 260 b 214 253 219 250 224 251 b 132 126 22 -12 9 -12 z"},"1":{"x_min":0,"x_max":402,"ha":402,"o":"m 331 587 b 294 587 135 390 -9 390 b -43 390 11 341 41 341 b 82 341 159 402 220 458 b 137 336 49 169 49 94 b 49 78 63 64 77 53 b -16 36 -102 6 -98 -19 b -98 -19 -95 -34 -86 -34 b -73 -34 -8 3 210 3 b 286 3 298 -52 309 -37 b 319 -21 277 44 266 54 b 256 64 234 68 220 68 b 200 68 159 66 134 63 b 146 191 368 502 384 521 b 401 541 367 587 331 587 z"},"5":{"x_min":0,"x_max":399,"ha":399,"o":"m 419 564 b 419 576 386 636 369 636 b 353 636 256 567 165 550 b 153 555 138 559 121 559 b 106 559 3 337 3 321 b 3 305 42 247 62 247 b 62 247 62 247 62 247 b 78 250 155 368 249 368 b 262 368 273 357 273 323 b 273 233 97 0 -47 0 b -86 0 -61 28 -87 28 b -114 28 -82 -53 3 -53 b 153 -53 342 144 342 300 b 342 377 261 425 222 425 b 198 425 172 419 146 409 b 163 449 178 486 186 508 b 301 515 419 553 419 564 z"}}}
